<svg xmlns="http://www.w3.org/2000/svg" viewBox="0 0 1024 1024" role="img" aria-labelledby="title desc">
  <title id="title">Comfort stable relationship result</title>
  <desc id="desc">Two people sitting on a bench and talking comfortably.</desc>
  <defs><linearGradient id="bg" x1="0" x2="1" y1="0" y2="1"><stop offset="0" stop-color="#e0f2fe"/><stop offset=".52" stop-color="#f5f3ff"/><stop offset="1" stop-color="#fce7f3"/></linearGradient></defs>
  <rect width="1024" height="1024" fill="url(#bg)"/>
  <circle cx="512" cy="230" r="124" fill="#fff" opacity=".58"/>
  <rect x="210" y="626" width="604" height="78" rx="39" fill="#a78bfa"/>
  <rect x="266" y="694" width="34" height="132" rx="17" fill="#7c3aed"/>
  <rect x="724" y="694" width="34" height="132" rx="17" fill="#7c3aed"/>
  <g transform="translate(312 320)">
    <circle cx="88" cy="72" r="54" fill="#f3c6b6"/>
    <path d="M38 64c24-62 100-62 114 8-40-18-75-22-114-8z" fill="#312e81"/>
    <path d="M34 306c8-98 42-156 106-176 58 24 90 82 94 176z" fill="#6366f1"/>
  </g>
  <g transform="translate(548 320)">
    <circle cx="88" cy="72" r="54" fill="#f6cabd"/>
    <path d="M35 62c30-60 102-54 116 14-40-20-76-23-116-14z" fill="#831843"/>
    <path d="M34 306c8-98 42-156 106-176 58 24 90 82 94 176z" fill="#ec4899"/>
  </g>
  <rect x="418" y="226" width="188" height="84" rx="42" fill="#fff" opacity=".85"/>
  <circle cx="470" cy="268" r="10" fill="#8b5cf6"/>
  <circle cx="512" cy="268" r="10" fill="#ec4899"/>
  <circle cx="554" cy="268" r="10" fill="#60a5fa"/>
</svg>
