<svg xmlns="http://www.w3.org/2000/svg" viewBox="0 0 1024 1024" role="img" aria-labelledby="title desc">
  <title id="title">Deep partner relationship result</title>
  <desc id="desc">Two people walking together in the same direction.</desc>
  <defs><linearGradient id="bg" x1="0" x2="1" y1="0" y2="1"><stop offset="0" stop-color="#dbeafe"/><stop offset=".5" stop-color="#ede9fe"/><stop offset="1" stop-color="#fdf2f8"/></linearGradient><linearGradient id="road" x1="0" x2="1"><stop offset="0" stop-color="#818cf8"/><stop offset="1" stop-color="#f472b6"/></linearGradient></defs>
  <rect width="1024" height="1024" fill="url(#bg)"/>
  <circle cx="512" cy="214" r="128" fill="#fff" opacity=".62"/>
  <path d="M210 842c98-238 190-356 302-356s204 118 302 356z" fill="url(#road)" opacity=".5"/>
  <path d="M512 492v330" stroke="#fff" stroke-width="16" stroke-linecap="round" opacity=".55"/>
  <g transform="translate(330 336)">
    <circle cx="100" cy="70" r="54" fill="#f1c3b4"/>
    <path d="M48 64c22-62 102-62 118 8-42-20-76-22-118-8z" fill="#312e81"/>
    <path d="M34 302c10-96 44-154 108-174 58 24 90 80 96 174z" fill="#6366f1"/>
    <path d="M196 182c52 64 92 78 144 42" stroke="#6366f1" stroke-width="28" stroke-linecap="round"/>
  </g>
  <g transform="translate(540 336)">
    <circle cx="100" cy="70" r="54" fill="#f6cabd"/>
    <path d="M46 62c30-60 102-54 118 14-42-20-76-24-118-14z" fill="#831843"/>
    <path d="M34 302c10-96 44-154 108-174 58 24 90 80 96 174z" fill="#ec4899"/>
  </g>
  <path d="M428 250c28-36 84-18 84 30 0 46-42 74-84 106-42-32-84-60-84-106 0-48 56-66 84-30z" fill="#fff" opacity=".82"/>
</svg>
