<svg xmlns="http://www.w3.org/2000/svg" viewBox="0 0 1200 800" role="img" aria-labelledby="t d"><title id="t">소녀시대 찐팬 테스트</title><desc id="d">분홍빛 무대 조명과 하트를 표현한 자체 제작 팬 퀴즈 그래픽</desc><defs><linearGradient id="g" x1="0" y1="0" x2="1" y2="1"><stop stop-color="#831843"/><stop offset=".5" stop-color="#db2777"/><stop offset="1" stop-color="#f9a8d4"/></linearGradient></defs><rect width="1200" height="800" rx="64" fill="url(#g)"/><circle cx="220" cy="150" r="70" fill="#fbcfe8" opacity=".55"/><circle cx="1000" cy="620" r="110" fill="#fdf2f8" opacity=".25"/><path d="M0 580q200-90 400 0t400 0t400 0v220H0z" fill="#500724" opacity=".55"/><g transform="translate(600 340)" fill="#fff"><path d="M0 150C-25 110-150 40-150-45c0-55 42-95 95-95 27 0 45 12 55 28 10-16 28-28 55-28 53 0 95 40 95 95C150 40 25 110 0 150z"/></g><g fill="#fde68a"><path d="m320 250 12 30 30 12-30 12-12 30-12-30-30-12 30-12z"/><path d="m880 170 9 22 22 9-22 9-9 22-9-22-22-9 22-9z" opacity=".9"/><path d="m950 420 7 18 18 7-18 7-7 18-7-18-18-7 18-7z" opacity=".8"/></g><text x="600" y="640" text-anchor="middle" fill="#fff" font-family="system-ui,sans-serif" font-size="60" font-weight="900">S♡NE TRUE FAN QUIZ</text><text x="600" y="712" text-anchor="middle" fill="#fbcfe8" font-family="system-ui,sans-serif" font-size="36" font-weight="700">소녀시대 찐팬 테스트</text></svg>
