<svg xmlns="http://www.w3.org/2000/svg" viewBox="0 0 1200 900" role="img" aria-labelledby="t d"><title id="t">직무 스트레스 테스트</title><desc id="d">업무 요소를 차분히 정리하는 직장인의 일러스트</desc><defs><linearGradient id="bg" x2="1" y2="1"><stop stop-color="#dbeafe"/><stop offset="1" stop-color="#ede9fe"/></linearGradient><linearGradient id="c" x2="1" y2="1"><stop stop-color="#2563eb"/><stop offset="1" stop-color="#7c3aed"/></linearGradient></defs><rect width="1200" height="900" rx="72" fill="url(#bg)"/><circle cx="1020" cy="130" r="90" fill="#fff" opacity=".55"/><rect x="170" y="590" width="860" height="44" rx="22" fill="#64748b" opacity=".22"/><rect x="250" y="630" width="36" height="150" rx="18" fill="#475569" opacity=".25"/><rect x="914" y="630" width="36" height="150" rx="18" fill="#475569" opacity=".25"/><rect x="300" y="240" width="410" height="300" rx="32" fill="#fff" stroke="#c7d2fe" stroke-width="12"/><rect x="340" y="290" width="330" height="34" rx="17" fill="#c7d2fe"/><rect x="340" y="355" width="250" height="22" rx="11" fill="#dbeafe"/><rect x="340" y="405" width="290" height="22" rx="11" fill="#e0e7ff"/><rect x="340" y="455" width="190" height="22" rx="11" fill="#ddd6fe"/><circle cx="830" cy="330" r="104" fill="#f1c9a5"/><path d="M728 325c8-116 193-141 213-5-43-21-67-56-79-91-22 54-65 86-134 96z" fill="#334155"/><path d="M690 610c18-154 75-220 140-220s124 66 142 220" fill="url(#c)"/><circle cx="795" cy="330" r="8" fill="#334155"/><circle cx="866" cy="330" r="8" fill="#334155"/><path d="M807 372c18 16 40 16 57 0" fill="none" stroke="#a65f55" stroke-width="8" stroke-linecap="round"/><rect x="760" y="515" width="180" height="122" rx="24" fill="#fff"/><path d="M795 556h110M795 590h72" stroke="#818cf8" stroke-width="14" stroke-linecap="round"/><circle cx="216" cy="245" r="66" fill="#fff"/><path d="M216 210v38l28 18" fill="none" stroke="#6366f1" stroke-width="12" stroke-linecap="round"/></svg>
