<svg xmlns="http://www.w3.org/2000/svg" viewBox="0 0 1200 800" role="img" aria-labelledby="title desc"><title id="title">세븐틴 찐팬 테스트</title><desc id="desc">보랏빛 다이아몬드와 별을 활용한 미미테스트 자체 그래픽</desc><defs><linearGradient id="bg" x1="0" y1="0" x2="1" y2="1"><stop stop-color="#6d28d9"/><stop offset=".52" stop-color="#c026d3"/><stop offset="1" stop-color="#fb7185"/></linearGradient></defs><rect width="1200" height="800" rx="64" fill="url(#bg)"/><g fill="#fff" opacity=".2"><circle cx="160" cy="150" r="90"/><circle cx="1040" cy="640" r="140"/></g><g transform="translate(600 330)"><path d="M0-190 200-80 145 135 0 250-145 135-200-80Z" fill="#fff"/><path d="m0-190 65 110L0 250-65-80Z" fill="#ede9fe"/><path d="m-200-80 135 0L0 250-145 135Z" fill="#ddd6fe"/><path d="m200-80-135 0L0 250l145-115Z" fill="#fce7f3"/><path d="M-200-80 0-190 200-80 65-80 0 250-65-80Z" fill="none" stroke="#7c3aed" stroke-width="12" stroke-linejoin="round"/></g><text x="600" y="690" text-anchor="middle" fill="#fff" font-family="system-ui,sans-serif" font-size="68" font-weight="900">TRUE FAN QUIZ</text></svg>
