<svg xmlns="http://www.w3.org/2000/svg" viewBox="0 0 1200 800" role="img" aria-labelledby="t d"><title id="t">이직 의향 테스트</title><desc id="d">책상 앞에서 현재 직장과 새로운 길 사이를 고민하는 직장인을 표현한 자체 제작 일러스트</desc><defs><linearGradient id="g" x1="0" y1="0" x2="1" y2="1"><stop stop-color="#eef2ff"/><stop offset="1" stop-color="#ede9fe"/></linearGradient><linearGradient id="p" x1="0" y1="0" x2="1" y2="0"><stop stop-color="#6366f1"/><stop offset="1" stop-color="#8b5cf6"/></linearGradient></defs><rect width="1200" height="800" rx="64" fill="url(#g)"/><circle cx="1010" cy="150" r="80" fill="#fde68a" opacity=".7"/><circle cx="150" cy="620" r="90" fill="#c7d2fe" opacity=".5"/><path d="M600 470 C 480 470 420 430 300 430 L300 470 C 420 470 480 510 600 510z" fill="#a5b4fc"/><path d="M600 470 C 720 470 780 400 900 380 L905 420 C 790 440 725 505 600 510z" fill="#8b5cf6" opacity=".85"/><rect x="270" y="380" width="120" height="90" rx="14" fill="#6366f1"/><rect x="288" y="398" width="24" height="20" rx="4" fill="#e0e7ff"/><rect x="320" y="398" width="24" height="20" rx="4" fill="#e0e7ff"/><rect x="288" y="426" width="24" height="20" rx="4" fill="#e0e7ff"/><rect x="320" y="426" width="24" height="20" rx="4" fill="#e0e7ff"/><g transform="translate(880 300)"><path d="M0 80 40 0l40 80z" fill="#8b5cf6"/><rect x="30" y="80" width="20" height="40" rx="6" fill="#7c3aed"/><circle cx="40" cy="-16" r="12" fill="#fbbf24"/></g><g transform="translate(600 320)"><rect x="-90" y="120" width="180" height="18" rx="9" fill="#c7d2fe"/><circle cx="0" cy="-20" r="42" fill="#fcd9bd"/><path d="M-42-28a42 42 0 0 1 84 0l-6-26a44 44 0 0 0-72 0z" fill="#4c1d95"/><rect x="-52" y="24" width="104" height="96" rx="34" fill="#4f46e5"/><rect x="-24" y="52" width="48" height="34" rx="8" fill="#fff" opacity=".92"/><circle cx="-14" cy="-24" r="5" fill="#1e1b4b"/><circle cx="14" cy="-24" r="5" fill="#1e1b4b"/><path d="M-10-6q10 8 20 0" stroke="#1e1b4b" stroke-width="4" fill="none" stroke-linecap="round"/></g><text x="600" y="240" text-anchor="middle" fill="#3730a3" font-family="system-ui,sans-serif" font-size="30" font-weight="800" opacity=".85">?</text><text x="600" y="700" text-anchor="middle" fill="#312e81" font-family="system-ui,sans-serif" font-size="64" font-weight="900">이직 의향 테스트</text></svg>
