<svg xmlns="http://www.w3.org/2000/svg" viewBox="0 0 1200 900" role="img" aria-labelledby="t d"><title id="t">워커홀릭 테스트</title><desc id="d">노트북과 휴식 사이에서 균형을 생각하는 직장인</desc><defs><linearGradient id="b" x2="1" y2="1"><stop stop-color="#dbeafe"/><stop offset="1" stop-color="#ede9fe"/></linearGradient></defs><rect width="1200" height="900" rx="72" fill="url(#b)"/><circle cx="970" cy="180" r="100" fill="#fff" opacity=".7"/><path d="M970 125v58l38 24" fill="none" stroke="#7c3aed" stroke-width="15" stroke-linecap="round"/><rect x="130" y="590" width="940" height="50" rx="25" fill="#64748b" opacity=".25"/><rect x="250" y="270" width="420" height="280" rx="30" fill="#fff" stroke="#818cf8" stroke-width="14"/><rect x="300" y="330" width="320" height="28" rx="14" fill="#c7d2fe"/><rect x="300" y="390" width="250" height="20" rx="10" fill="#ddd6fe"/><rect x="300" y="440" width="290" height="20" rx="10" fill="#dbeafe"/><circle cx="815" cy="350" r="105" fill="#f1c9a5"/><path d="M710 350c10-130 210-145 220 0-65-20-90-58-105-100-28 55-65 83-115 100" fill="#334155"/><path d="M680 610c22-170 75-220 135-220s120 50 145 220" fill="#4f46e5"/><circle cx="780" cy="350" r="8"/><circle cx="850" cy="350" r="8"/><path d="M795 395c20 12 38 12 57 0" fill="none" stroke="#a65f55" stroke-width="8" stroke-linecap="round"/><circle cx="170" cy="180" r="80" fill="#fff" opacity=".8"/><path d="M130 180h80M170 140v80" stroke="#3b82f6" stroke-width="13" stroke-linecap="round"/></svg>
