<svg xmlns="http://www.w3.org/2000/svg" viewBox="0 0 1024 1024" role="img" aria-labelledby="title desc">
  <title id="title">Careful connector result</title>
  <desc id="desc">Two speech bubbles and puzzle pieces moving closer.</desc>
  <defs><linearGradient id="bg" x1="0" x2="1" y1="0" y2="1"><stop offset="0" stop-color="#f0fdfa"/><stop offset=".5" stop-color="#f5f3ff"/><stop offset="1" stop-color="#eff6ff"/></linearGradient></defs>
  <rect width="1024" height="1024" fill="url(#bg)"/>
  <circle cx="512" cy="514" r="334" fill="#fff" opacity=".48"/>
  <rect x="222" y="300" width="264" height="150" rx="75" fill="#99f6e4"/>
  <path d="M316 444l-44 74 94-58z" fill="#99f6e4"/>
  <rect x="538" y="300" width="264" height="150" rx="75" fill="#c4b5fd"/>
  <path d="M708 444l44 74-94-58z" fill="#c4b5fd"/>
  <circle cx="314" cy="374" r="12" fill="#0f766e"/>
  <circle cx="366" cy="374" r="12" fill="#0f766e"/>
  <circle cx="418" cy="374" r="12" fill="#0f766e"/>
  <path d="M614 374h112" stroke="#6d28d9" stroke-width="18" stroke-linecap="round"/>
  <path d="M370 636h104v66c34-16 66 8 66 42s-32 58-66 42v70H370v-66c-34 16-66-8-66-42s32-58 66-42z" fill="#14b8a6" opacity=".84"/>
  <path d="M534 636h104v70c34-16 66 8 66 42s-32 58-66 42v66H534v-70c-34 16-66-8-66-42s32-58 66-42z" fill="#8b5cf6" opacity=".8"/>
</svg>
