<svg xmlns="http://www.w3.org/2000/svg" viewBox="0 0 1024 640" role="img" aria-labelledby="title desc">
  <title id="title">Interpersonal ability test cover</title>
  <desc id="desc">Soft abstract communication network with speech bubbles and connection lines.</desc>
  <defs>
    <linearGradient id="bg" x1="0" x2="1" y1="0" y2="1"><stop offset="0" stop-color="#ccfbf1"/><stop offset=".52" stop-color="#eef2ff"/><stop offset="1" stop-color="#f5f3ff"/></linearGradient>
    <linearGradient id="line" x1="0" x2="1"><stop offset="0" stop-color="#14b8a6"/><stop offset="1" stop-color="#8b5cf6"/></linearGradient>
  </defs>
  <rect width="1024" height="640" fill="url(#bg)"/>
  <circle cx="160" cy="118" r="104" fill="#fff" opacity=".52"/>
  <circle cx="868" cy="150" r="132" fill="#fff" opacity=".44"/>
  <path d="M112 464c172-98 290-92 442 4 126 78 246 76 358-6" fill="none" stroke="#fff" stroke-width="86" stroke-linecap="round" opacity=".55"/>
  <path d="M214 408c142-140 256-140 396 0s244 136 330 0" fill="none" stroke="url(#line)" stroke-width="24" stroke-linecap="round" opacity=".68"/>
  <g fill="#fff" opacity=".9">
    <rect x="176" y="210" width="210" height="118" rx="58"/>
    <rect x="434" y="148" width="238" height="132" rx="66"/>
    <rect x="614" y="330" width="230" height="122" rx="61"/>
  </g>
  <circle cx="252" cy="270" r="13" fill="#14b8a6"/>
  <circle cx="304" cy="270" r="13" fill="#8b5cf6"/>
  <circle cx="356" cy="270" r="13" fill="#60a5fa"/>
  <path d="M510 214h84M552 172v84" stroke="#14b8a6" stroke-width="16" stroke-linecap="round" opacity=".75"/>
  <path d="M690 392h78" stroke="#8b5cf6" stroke-width="16" stroke-linecap="round"/>
  <path d="M250 498c96 46 180 52 252 16 84-42 166-38 246 12" fill="none" stroke="#99f6e4" stroke-width="22" stroke-linecap="round"/>
</svg>
